<svg width="277" height="199" viewBox="0 0 277 199" fill="none" xmlns="http://www.w3.org/2000/svg">
<g clip-path="url(#clip0_5_163)">
<path d="M122.844 33.8993C122.844 30.0805 125.94 26.9849 129.758 26.9849L151.757 26.9849C171.502 26.9849 187.567 43.0511 187.567 62.7975C187.567 82.5427 171.502 98.6056 151.757 98.6056C147.938 98.6056 144.843 95.511 144.843 91.6923C144.843 87.8746 147.938 84.779 151.757 84.779C163.878 84.779 173.741 74.9175 173.741 62.7963C173.741 50.6729 163.878 40.8115 151.757 40.8115L129.758 40.8115C125.94 40.8137 122.844 37.718 122.844 33.8993Z" fill="#111111"/>
<path d="M88.5282 35.8092C88.5282 16.064 104.591 0 124.337 0C128.156 0 131.251 3.09567 131.251 6.91442C131.251 10.7332 128.156 13.8277 124.337 13.8277C112.217 13.8277 102.355 23.6892 102.355 35.8103C102.355 47.9326 112.217 57.7952 124.337 57.7952H146.338C150.157 57.7952 153.252 60.8909 153.252 64.7085C153.252 68.5273 150.157 71.6218 146.338 71.6218H124.337C104.591 71.6196 88.5282 55.5556 88.5282 35.8092Z" fill="#111111"/>
<path d="M0 177.996V165.977C1.02289 166.232 2.30151 166.488 3.7506 166.659C5.1997 166.914 6.73404 167.085 8.35362 167.17C9.9732 167.255 11.5928 167.341 13.2976 167.426C15.0024 167.511 16.622 167.596 18.0711 167.596C22.0774 167.596 24.8904 167.341 26.5952 166.914C28.2148 166.488 29.0672 165.721 29.0672 164.528C29.0672 163.505 28.3 162.738 27.5328 162.141C24.7199 160.266 21.3955 159.498 18.0711 158.731C8.69458 156.856 0.0852409 153.105 0.0852409 142.365C0.0852409 129.664 12.1042 126.681 22.4184 126.681C28.1295 126.681 33.9259 127.277 39.4666 128.641V140.66C38.6142 140.404 37.506 140.234 36.1422 139.978C34.6931 139.808 33.244 139.637 31.6244 139.467C28.3 139.126 25.1461 138.955 21.8217 138.955C19.9464 138.955 16.0253 138.955 14.2352 139.637C13.0419 140.063 12.2747 140.575 12.2747 141.939C12.2747 142.621 12.4452 143.217 12.7862 143.729C13.1271 144.325 13.7238 144.752 14.491 145.178C16.7925 146.457 19.7759 147.224 22.3331 147.82C24.4642 148.332 26.5952 148.929 28.8115 149.525C36.3127 151.571 41.2567 155.748 41.2567 163.76C41.2567 176.973 28.1295 179.786 17.5596 179.786C11.7633 179.786 5.71115 179.36 0 177.996ZM60.5211 157.964V179.274H47.735V119.606H60.5211V140.575C63.5046 137.421 67.2552 136.228 71.5172 136.228C83.6214 136.228 91.2079 146.627 91.2079 157.964V179.274H78.4217V157.964C78.4217 152.168 76.1202 148.076 69.8976 148.076C63.7603 148.076 60.5211 151.997 60.5211 157.964ZM119.167 167.852C125.39 167.852 128.97 164.187 128.97 157.964C128.97 151.741 125.39 148.076 119.167 148.076C112.944 148.076 109.364 151.741 109.364 157.964C109.364 164.187 112.944 167.852 119.167 167.852ZM119.167 179.701C106.04 179.701 96.5781 171.006 96.5781 157.964C96.5781 144.496 106.381 136.228 119.167 136.228C132.379 136.228 141.756 144.922 141.756 157.964C141.756 171.347 131.868 179.701 119.167 179.701ZM160.594 157.964V179.274H147.808V158.049C147.808 143.899 158.207 136.228 171.334 136.228C171.761 136.228 172.357 136.228 172.954 136.313C173.551 136.398 174.233 136.569 174.829 136.654V149.014C174.403 148.928 173.892 148.843 173.295 148.758C172.698 148.673 172.187 148.588 171.761 148.588C169.63 148.588 167.925 148.843 166.476 149.269C164.089 150.122 161.958 151.741 161.191 154.299C160.765 155.407 160.594 156.685 160.594 157.964ZM203.982 138.103V149.951H192.048V157.964C192.048 164.528 196.395 167.852 202.703 167.852C203.47 167.852 204.152 167.767 204.749 167.682C205.346 167.596 205.857 167.511 206.454 167.426V179.274C205.687 179.36 205.09 179.53 204.664 179.615C204.152 179.701 203.3 179.701 202.192 179.701C189.32 179.701 179.262 170.921 179.262 157.964V126.425H192.048V138.103H203.982ZM212.591 119.606H225.377V179.274H212.591V119.606ZM263.309 157.964V136.654H276.096V177.058C276.096 190.611 266.378 198.88 253.507 198.88C248.989 198.88 244.471 198.454 240.124 197.004V183.877C243.789 185.838 248.733 186.52 252.825 186.52C257.428 186.52 261.093 185.156 262.798 180.723C263.139 179.53 263.309 178.251 263.309 176.973V175.012C260.411 178.251 256.661 179.701 252.399 179.701C240.294 179.701 232.623 169.301 232.623 157.964V136.654H245.409V157.964C245.409 163.76 247.71 167.852 253.933 167.852C259.985 167.852 263.309 163.846 263.309 157.964Z" fill="#111111"/>
</g>
<defs>
<clipPath id="clip0_5_163">
<rect width="276.096" height="198.88" fill="white"/>
</clipPath>
</defs>
</svg>
